<mxfile host="app.diagrams.net" agent="Mozilla/5.0 (Windows NT 10.0; Win64; x64) AppleWebKit/537.36 (KHTML, like Gecko) Chrome/133.0.0.0 Safari/537.36" version="26.0.16">
  <diagram name="第 1 页" id="oHD4Ffq2n3VPvw9LJycC">
    <mxGraphModel dx="1434" dy="752" grid="1" gridSize="10" guides="1" tooltips="1" connect="1" arrows="1" fold="1" page="1" pageScale="1" pageWidth="827" pageHeight="1169" math="0" shadow="0">
      <root>
        <mxCell id="0" />
        <mxCell id="1" parent="0" />
        <mxCell id="FgMGe-JlmILben86hI7q-3" value="" style="edgeStyle=orthogonalEdgeStyle;rounded=0;orthogonalLoop=1;jettySize=auto;html=1;" edge="1" parent="1" source="FgMGe-JlmILben86hI7q-1" target="FgMGe-JlmILben86hI7q-2">
          <mxGeometry relative="1" as="geometry" />
        </mxCell>
        <mxCell id="FgMGe-JlmILben86hI7q-5" value="" style="edgeStyle=orthogonalEdgeStyle;rounded=0;orthogonalLoop=1;jettySize=auto;html=1;" edge="1" parent="1" source="FgMGe-JlmILben86hI7q-1" target="FgMGe-JlmILben86hI7q-4">
          <mxGeometry relative="1" as="geometry" />
        </mxCell>
        <mxCell id="FgMGe-JlmILben86hI7q-7" value="" style="edgeStyle=orthogonalEdgeStyle;rounded=0;orthogonalLoop=1;jettySize=auto;html=1;" edge="1" parent="1" source="FgMGe-JlmILben86hI7q-1" target="FgMGe-JlmILben86hI7q-6">
          <mxGeometry relative="1" as="geometry" />
        </mxCell>
        <mxCell id="FgMGe-JlmILben86hI7q-9" value="" style="edgeStyle=orthogonalEdgeStyle;rounded=0;orthogonalLoop=1;jettySize=auto;html=1;" edge="1" parent="1" source="FgMGe-JlmILben86hI7q-1" target="FgMGe-JlmILben86hI7q-8">
          <mxGeometry relative="1" as="geometry" />
        </mxCell>
        <mxCell id="FgMGe-JlmILben86hI7q-1" value="&lt;h4&gt;titanic_ml_project&lt;/h4&gt;" style="rounded=1;whiteSpace=wrap;html=1;" vertex="1" parent="1">
          <mxGeometry x="330" y="510" width="120" height="60" as="geometry" />
        </mxCell>
        <mxCell id="FgMGe-JlmILben86hI7q-13" value="" style="edgeStyle=orthogonalEdgeStyle;rounded=0;orthogonalLoop=1;jettySize=auto;html=1;" edge="1" parent="1" source="FgMGe-JlmILben86hI7q-2" target="FgMGe-JlmILben86hI7q-12">
          <mxGeometry relative="1" as="geometry" />
        </mxCell>
        <mxCell id="FgMGe-JlmILben86hI7q-15" value="" style="edgeStyle=orthogonalEdgeStyle;rounded=0;orthogonalLoop=1;jettySize=auto;html=1;" edge="1" parent="1" source="FgMGe-JlmILben86hI7q-2" target="FgMGe-JlmILben86hI7q-14">
          <mxGeometry relative="1" as="geometry" />
        </mxCell>
        <mxCell id="FgMGe-JlmILben86hI7q-2" value="&lt;h4&gt;data&lt;/h4&gt;" style="rounded=1;whiteSpace=wrap;html=1;" vertex="1" parent="1">
          <mxGeometry x="330" y="680" width="120" height="60" as="geometry" />
        </mxCell>
        <mxCell id="FgMGe-JlmILben86hI7q-17" value="" style="edgeStyle=orthogonalEdgeStyle;rounded=0;orthogonalLoop=1;jettySize=auto;html=1;" edge="1" parent="1" source="FgMGe-JlmILben86hI7q-4" target="FgMGe-JlmILben86hI7q-16">
          <mxGeometry relative="1" as="geometry" />
        </mxCell>
        <mxCell id="FgMGe-JlmILben86hI7q-19" value="" style="edgeStyle=orthogonalEdgeStyle;rounded=0;orthogonalLoop=1;jettySize=auto;html=1;" edge="1" parent="1" source="FgMGe-JlmILben86hI7q-4" target="FgMGe-JlmILben86hI7q-18">
          <mxGeometry relative="1" as="geometry" />
        </mxCell>
        <mxCell id="FgMGe-JlmILben86hI7q-4" value="&lt;h4&gt;models&lt;/h4&gt;" style="rounded=1;whiteSpace=wrap;html=1;" vertex="1" parent="1">
          <mxGeometry x="560" y="510" width="120" height="60" as="geometry" />
        </mxCell>
        <mxCell id="FgMGe-JlmILben86hI7q-21" value="" style="edgeStyle=orthogonalEdgeStyle;rounded=0;orthogonalLoop=1;jettySize=auto;html=1;" edge="1" parent="1" source="FgMGe-JlmILben86hI7q-6" target="FgMGe-JlmILben86hI7q-20">
          <mxGeometry relative="1" as="geometry" />
        </mxCell>
        <mxCell id="FgMGe-JlmILben86hI7q-23" value="" style="edgeStyle=orthogonalEdgeStyle;rounded=0;orthogonalLoop=1;jettySize=auto;html=1;" edge="1" parent="1" source="FgMGe-JlmILben86hI7q-6" target="FgMGe-JlmILben86hI7q-22">
          <mxGeometry relative="1" as="geometry" />
        </mxCell>
        <mxCell id="FgMGe-JlmILben86hI7q-6" value="&lt;h4&gt;scripts&lt;/h4&gt;" style="rounded=1;whiteSpace=wrap;html=1;" vertex="1" parent="1">
          <mxGeometry x="330" y="340" width="120" height="60" as="geometry" />
        </mxCell>
        <mxCell id="FgMGe-JlmILben86hI7q-8" value="&lt;h4&gt;notebooks&lt;/h4&gt;" style="rounded=1;whiteSpace=wrap;html=1;" vertex="1" parent="1">
          <mxGeometry x="120" y="510" width="120" height="60" as="geometry" />
        </mxCell>
        <mxCell id="FgMGe-JlmILben86hI7q-12" value="train.csv" style="rhombus;whiteSpace=wrap;html=1;rounded=1;" vertex="1" parent="1">
          <mxGeometry x="240" y="780" width="80" height="80" as="geometry" />
        </mxCell>
        <mxCell id="FgMGe-JlmILben86hI7q-14" value="test.csv" style="rhombus;whiteSpace=wrap;html=1;rounded=1;" vertex="1" parent="1">
          <mxGeometry x="460" y="790" width="80" height="80" as="geometry" />
        </mxCell>
        <mxCell id="FgMGe-JlmILben86hI7q-16" value="model.pkl" style="rhombus;whiteSpace=wrap;html=1;rounded=1;" vertex="1" parent="1">
          <mxGeometry x="720" y="410" width="80" height="80" as="geometry" />
        </mxCell>
        <mxCell id="FgMGe-JlmILben86hI7q-18" value="scaler.pkl" style="rhombus;whiteSpace=wrap;html=1;rounded=1;" vertex="1" parent="1">
          <mxGeometry x="720" y="600" width="80" height="80" as="geometry" />
        </mxCell>
        <mxCell id="FgMGe-JlmILben86hI7q-20" value="train.py" style="rhombus;whiteSpace=wrap;html=1;rounded=1;" vertex="1" parent="1">
          <mxGeometry x="270" y="220" width="80" height="80" as="geometry" />
        </mxCell>
        <mxCell id="FgMGe-JlmILben86hI7q-22" value="predict.py" style="rhombus;whiteSpace=wrap;html=1;rounded=1;" vertex="1" parent="1">
          <mxGeometry x="440" y="220" width="80" height="80" as="geometry" />
        </mxCell>
      </root>
    </mxGraphModel>
  </diagram>
</mxfile>
